<svg width="149" height="138" viewBox="0 0 149 138" fill="none" xmlns="http://www.w3.org/2000/svg">
  <style>
    @keyframes flip {
      0% { transform: rotateY(0deg); }
      45% { transform: rotateY(360deg); }
      100% { transform: rotateY(360deg); } /* 55% vaqt pauza */
    }

    .logo {
      animation: flip 3s ease-in-out infinite; /* 3s harakat + pauza */
      transform-origin: center;
      transition: transform 0.5s;
    }
  </style>
  <g class="logo">
    <g clip-path="url(#clip0_1_3)">
      <g filter="url(#filter0_d_1_3)">
        <path d="M145.624 17.1067C127.591 17.1067 102.117 18.5491 89.0983 30.9888C83.4619 36.3775 80.6472 45.1621 81.3777 55.1052C81.4727 56.4184 82.3863 57.5371 83.6989 57.9515C85.0045 58.3589 86.4391 57.9774 87.3322 56.9749C94.5722 48.8302 103.571 42.3032 114.1 37.5744C114.993 37.1668 116.048 37.1344 117.009 37.4579C117.855 37.749 118.518 38.2988 118.863 39.0041C119.58 40.4532 119.35 42.3615 116.968 43.4352C116.833 43.4998 116.711 43.5841 116.576 43.6423C116.529 43.6617 116.475 43.6553 116.434 43.6747C90.4924 55.3318 77.738 75.6699 71.9456 96.584C67.7233 70.3978 58.8056 54.9823 50.3816 45.5182C44.2854 37.9628 38.2903 33.9583 34.8261 31.6944C34.1832 31.2738 32.2415 30.0061 31.4362 29.2361C30.1168 27.9747 30.1168 25.924 31.4362 24.6625C32.7556 23.4075 34.9073 23.4075 36.3755 24.8047C36.7342 25.1089 37.3092 25.497 38.04 25.9628L38.6423 26.3509C43.541 29.5594 52.6622 35.5172 60.7543 48.345C61.4783 49.4899 62.8789 50.1047 64.239 49.859C65.6196 49.6261 66.7017 48.6103 66.9727 47.2971C68.7388 38.6742 67.9473 25.8785 59.9022 18.1871C46.8838 5.75371 21.4089 4.31124 3.38356 4.31124C1.51575 4.31094 0 5.76008 0 7.54548C0 24.785 1.50877 49.1405 14.5203 61.5867C19.9468 66.7746 28.3168 69.1037 36.6324 69.1037C43.4189 69.1037 50.0701 67.4798 55.1654 64.6659C62.1139 78.4316 67.6628 98.9963 67.6628 130.455C67.6628 132.24 69.1784 133.689 71.046 133.689C72.9131 133.689 74.4292 132.24 74.4292 130.455C74.4292 112.904 77.5755 91.8417 89.2743 74.5049C93.9631 78.8848 102.036 81.6599 110.98 81.9186C111.427 81.9315 111.867 81.9377 112.306 81.9377C121.394 81.9377 129.425 79.2147 134.479 74.3758C147.497 61.9295 149 37.5741 149 20.3342C149.007 18.5491 147.498 17.1067 145.624 17.1067Z" fill="#00B307"/>
      </g>
    </g>
  </g>
</svg>
