<svg width="324" height="280" viewBox="0 0 324 280" fill="none" xmlns="http://www.w3.org/2000/svg">
<path d="M130.629 263.458L7.54006 25.2672C4.10051 18.6112 8.93182 10.6763 16.424 10.6763H77.5C155.807 20.5826 164.685 151.544 219.185 185.217C224.343 188.404 227.032 194.982 224.262 200.376L191.922 263.354C191.641 263.901 191.314 264.418 190.913 264.884C188.296 267.918 177.113 279.676 161 279.676C144.745 279.676 133.894 267.709 131.5 264.805C131.158 264.39 130.876 263.936 130.629 263.458Z" fill="#158C3E"/>
<path d="M319.747 19.2526L237.255 175.9C233.861 182.344 224.944 183.091 220.859 177.062C138.613 55.6864 249.633 -24.394 316.02 6.74403C320.7 8.93956 322.156 14.678 319.747 19.2526Z" fill="#0CCC17"/>
</svg>
