<svg width="775" height="280" viewBox="0 0 775 280" fill="none" xmlns="http://www.w3.org/2000/svg">
<path d="M131 264.5L0 11H77.5C160.5 21.5 165.5 168 229.5 190.5L191.5 264.5C191.5 264.5 179.5 280 161 280C142.5 280 131 264.5 131 264.5Z" fill="#158C3E"/>
<path d="M230 190L324 11.5C257 -32 127 56.5 230 190Z" fill="#0CCC17"/>
<path d="M275.288 280L247 191.68H268.12L295.256 280H275.288ZM286.168 280L312.536 191.68H333.4L305.112 280H286.168ZM341.311 280V191.68H361.151V280H341.311ZM397.285 280V191.68H416.997V280H397.285ZM371.685 210.24V191.68H442.597V210.24H371.685ZM503.902 280L477.022 191.68H496.862L525.15 280H503.902ZM438.75 280L467.038 191.68H485.726L459.614 280H438.75ZM458.334 259.776V242.24H505.438V259.776H458.334ZM541.765 280V261.44H566.725C574.064 261.44 579.61 259.179 583.365 254.656C587.12 250.048 588.997 243.776 588.997 235.84C588.997 227.819 587.12 221.547 583.365 217.024C579.61 212.501 574.064 210.24 566.725 210.24H541.765V191.68H568.005C576.794 191.68 584.261 193.515 590.405 197.184C596.549 200.768 601.2 205.888 604.357 212.544C607.6 219.115 609.221 226.88 609.221 235.84C609.221 244.8 607.6 252.608 604.357 259.264C601.2 265.835 596.549 270.955 590.405 274.624C584.261 278.208 576.794 280 568.005 280H541.765ZM533.061 280V191.68H552.901V280H533.061ZM676.527 280L649.647 191.68H669.487L697.775 280H676.527ZM611.375 280L639.663 191.68H658.351L632.239 280H611.375ZM630.959 259.776V242.24H678.063V259.776H630.959ZM724.783 251.84L691.119 191.68H713.391L737.583 236.096L724.783 251.84ZM722.351 280V231.232H742.063V280H722.351ZM739.759 251.712L728.367 236.096L752.047 191.68H773.551L739.759 251.712Z" fill="#158C3E"/>
</svg>
