<svg width="539" height="138" viewBox="0 0 539 138" fill="none" xmlns="http://www.w3.org/2000/svg">

<g id="Frame 1">
<g id="Biomart" filter="url(#filter0_d_2_5)">
<path d="M189.191 101V35.5455H213.161C217.806 35.5455 221.652 36.3125 224.699 37.8466C227.746 39.3594 230.026 41.4155 231.538 44.0149C233.051 46.593 233.808 49.5014 233.808 52.7401C233.808 55.4673 233.307 57.7685 232.305 59.6435C231.304 61.4972 229.962 62.9886 228.278 64.1179C226.616 65.2259 224.784 66.0355 222.781 66.5469V67.1861C224.955 67.2926 227.075 67.9957 229.141 69.2955C231.229 70.5739 232.955 72.3956 234.319 74.7607C235.683 77.1257 236.364 80.0021 236.364 83.3899C236.364 86.7351 235.576 89.7393 233.999 92.4027C232.444 95.0447 230.036 97.1435 226.776 98.6989C223.516 100.233 219.351 101 214.28 101H189.191ZM199.067 92.5305H213.321C218.051 92.5305 221.439 91.6143 223.484 89.782C225.53 87.9496 226.553 85.6591 226.553 82.9105C226.553 80.8437 226.031 78.9474 224.987 77.2216C223.942 75.4957 222.451 74.1214 220.512 73.0987C218.594 72.076 216.315 71.5646 213.673 71.5646H199.067V92.5305ZM199.067 63.8622H212.298C214.514 63.8622 216.506 63.4361 218.275 62.5838C220.065 61.7315 221.482 60.5384 222.526 59.0043C223.591 57.4489 224.124 55.6165 224.124 53.5071C224.124 50.8011 223.175 48.532 221.279 46.6996C219.383 44.8672 216.474 43.951 212.554 43.951H199.067V63.8622ZM247.311 101V51.9091H256.867V101H247.311ZM252.137 44.3345C250.475 44.3345 249.047 43.7805 247.854 42.6726C246.682 41.5433 246.096 40.201 246.096 38.6456C246.096 37.0689 246.682 35.7266 247.854 34.6186C249.047 33.4893 250.475 32.9247 252.137 32.9247C253.799 32.9247 255.216 33.4893 256.387 34.6186C257.581 35.7266 258.177 37.0689 258.177 38.6456C258.177 40.201 257.581 41.5433 256.387 42.6726C255.216 43.7805 253.799 44.3345 252.137 44.3345ZM290.401 101.991C285.799 101.991 281.782 100.936 278.352 98.8267C274.922 96.7173 272.258 93.7663 270.362 89.9737C268.466 86.1811 267.518 81.7493 267.518 76.6783C267.518 71.5859 268.466 67.1328 270.362 63.3189C272.258 59.505 274.922 56.5433 278.352 54.4339C281.782 52.3246 285.799 51.2699 290.401 51.2699C295.003 51.2699 299.02 52.3246 302.45 54.4339C305.881 56.5433 308.544 59.505 310.44 63.3189C312.336 67.1328 313.285 71.5859 313.285 76.6783C313.285 81.7493 312.336 86.1811 310.44 89.9737C308.544 93.7663 305.881 96.7173 302.45 98.8267C299.02 100.936 295.003 101.991 290.401 101.991ZM290.433 93.9688C293.416 93.9688 295.888 93.1804 297.848 91.6037C299.808 90.027 301.257 87.9283 302.194 85.3075C303.153 82.6868 303.633 79.7997 303.633 76.6463C303.633 73.5142 303.153 70.6378 302.194 68.017C301.257 65.375 299.808 63.255 297.848 61.657C295.888 60.0589 293.416 59.2599 290.433 59.2599C287.429 59.2599 284.936 60.0589 282.954 61.657C280.994 63.255 279.535 65.375 278.576 68.017C277.638 70.6378 277.17 73.5142 277.17 76.6463C277.17 79.7997 277.638 82.6868 278.576 85.3075C279.535 87.9283 280.994 90.027 282.954 91.6037C284.936 93.1804 287.429 93.9688 290.433 93.9688ZM323.951 101V51.9091H333.124V59.8991H333.731C334.754 57.1932 336.426 55.0838 338.749 53.571C341.071 52.0369 343.852 51.2699 347.091 51.2699C350.372 51.2699 353.12 52.0369 355.336 53.571C357.574 55.1051 359.225 57.2145 360.29 59.8991H360.801C361.973 57.2784 363.838 55.1903 366.395 53.6349C368.951 52.0582 371.998 51.2699 375.535 51.2699C379.988 51.2699 383.621 52.6655 386.434 55.4567C389.267 58.2479 390.684 62.456 390.684 68.081V101H381.128V68.9759C381.128 65.652 380.223 63.2443 378.412 61.7528C376.6 60.2614 374.438 59.5156 371.924 59.5156C368.813 59.5156 366.395 60.4744 364.669 62.392C362.943 64.2884 362.08 66.728 362.08 69.7109V101H352.556V68.3686C352.556 65.7053 351.725 63.5639 350.063 61.9446C348.401 60.3253 346.238 59.5156 343.575 59.5156C341.764 59.5156 340.091 59.995 338.557 60.9538C337.044 61.8913 335.819 63.2017 334.882 64.8849C333.966 66.5682 333.507 68.5178 333.507 70.7337V101H323.951ZM417.779 102.087C414.668 102.087 411.855 101.511 409.341 100.361C406.827 99.1889 404.835 97.495 403.365 95.2791C401.916 93.0632 401.191 90.3466 401.191 87.1293C401.191 84.3594 401.724 82.0795 402.789 80.2898C403.855 78.5 405.293 77.0831 407.104 76.0391C408.915 74.995 410.939 74.2067 413.176 73.674C415.414 73.1413 417.693 72.7365 420.016 72.4595C422.956 72.1186 425.343 71.8416 427.175 71.6286C429.007 71.3942 430.339 71.0213 431.17 70.5099C432.001 69.9986 432.416 69.1676 432.416 68.017V67.7933C432.416 65.0021 431.628 62.8395 430.051 61.3054C428.496 59.7713 426.173 59.0043 423.084 59.0043C419.867 59.0043 417.331 59.718 415.477 61.1456C413.645 62.5518 412.377 64.1179 411.674 65.8438L402.693 63.7983C403.759 60.8153 405.314 58.4077 407.36 56.5753C409.426 54.7216 411.802 53.3793 414.487 52.5483C417.171 51.696 419.994 51.2699 422.956 51.2699C424.916 51.2699 426.994 51.5043 429.188 51.973C431.404 52.4205 433.471 53.2514 435.389 54.4659C437.328 55.6804 438.915 57.4169 440.151 59.6754C441.387 61.9126 442.004 64.821 442.004 68.4006V101H432.672V94.2884H432.289C431.671 95.5241 430.744 96.7386 429.508 97.9318C428.272 99.125 426.685 100.116 424.746 100.904C422.807 101.692 420.485 102.087 417.779 102.087ZM419.856 94.4162C422.498 94.4162 424.757 93.8942 426.632 92.8501C428.528 91.8061 429.966 90.4425 430.946 88.7592C431.948 87.0547 432.448 85.233 432.448 83.294V76.9659C432.107 77.3068 431.447 77.6264 430.467 77.9247C429.508 78.2017 428.411 78.4467 427.175 78.6598C425.939 78.8516 424.735 79.0327 423.563 79.2031C422.392 79.3523 421.411 79.4801 420.623 79.5866C418.769 79.821 417.075 80.2152 415.541 80.7692C414.029 81.3232 412.814 82.1222 411.898 83.1662C411.003 84.1889 410.556 85.5526 410.556 87.2571C410.556 89.6222 411.429 91.4119 413.176 92.6264C414.923 93.8196 417.15 94.4162 419.856 94.4162ZM454.733 101V51.9091H463.969V59.7074H464.48C465.375 57.0653 466.952 54.9879 469.211 53.4751C471.49 51.941 474.069 51.174 476.945 51.174C477.542 51.174 478.245 51.1953 479.054 51.2379C479.885 51.2805 480.535 51.3338 481.004 51.3977V60.5384C480.62 60.4318 479.939 60.3146 478.958 60.1868C477.978 60.0376 476.998 59.9631 476.018 59.9631C473.76 59.9631 471.746 60.4425 469.978 61.4013C468.23 62.3388 466.846 63.6491 465.823 65.3324C464.8 66.9943 464.289 68.8906 464.289 71.0213V101H454.733ZM515.089 51.9091V59.5795H488.275V51.9091H515.089ZM495.466 40.1477H505.022V86.5859C505.022 88.4396 505.299 89.8352 505.853 90.7727C506.407 91.6889 507.121 92.3175 507.994 92.6584C508.889 92.978 509.859 93.1378 510.903 93.1378C511.67 93.1378 512.341 93.0845 512.916 92.978C513.491 92.8714 513.939 92.7862 514.259 92.7223L515.984 100.616C515.43 100.83 514.642 101.043 513.619 101.256C512.597 101.49 511.318 101.618 509.784 101.639C507.27 101.682 504.926 101.234 502.753 100.297C500.58 99.3594 498.822 97.9105 497.479 95.9503C496.137 93.9901 495.466 91.5291 495.466 88.5675V40.1477Z" fill="#F4F4F4"/>
</g>
<g id="logo[1] 1" clip-path="url(#clip0_2_5)">
<g id="Vector" filter="url(#filter1_d_2_5)">
<path d="M145.624 17.1067C127.591 17.1067 102.117 18.5491 89.0983 30.9888C83.4619 36.3775 80.6472 45.1621 81.3777 55.1052C81.4727 56.4184 82.3863 57.5371 83.6989 57.9515C85.0045 58.3589 86.4391 57.9774 87.3322 56.9749C94.5722 48.8302 103.571 42.3032 114.1 37.5744C114.993 37.1668 116.048 37.1344 117.009 37.4579C117.855 37.749 118.518 38.2988 118.863 39.0041C119.58 40.4532 119.35 42.3615 116.968 43.4352C116.833 43.4998 116.711 43.5841 116.576 43.6423C116.529 43.6617 116.475 43.6553 116.434 43.6747C90.4924 55.3318 77.738 75.6699 71.9456 96.584C67.7233 70.3978 58.8056 54.9823 50.3816 45.5182C44.2854 37.9628 38.2903 33.9583 34.8261 31.6944C34.1832 31.2738 32.2415 30.0061 31.4362 29.2361C30.1168 27.9747 30.1168 25.924 31.4362 24.6625C32.7556 23.4075 34.9073 23.4075 36.3755 24.8047C36.7342 25.1089 37.3092 25.497 38.04 25.9628L38.6423 26.3509C43.541 29.5594 52.6622 35.5172 60.7543 48.345C61.4783 49.4899 62.8789 50.1047 64.239 49.859C65.6196 49.6261 66.7017 48.6103 66.9727 47.2971C68.7388 38.6742 67.9473 25.8785 59.9022 18.1871C46.8838 5.75371 21.4089 4.31124 3.38356 4.31124C1.51575 4.31094 0 5.76008 0 7.54548C0 24.785 1.50877 49.1405 14.5203 61.5867C19.9468 66.7746 28.3168 69.1037 36.6324 69.1037C43.4189 69.1037 50.0701 67.4798 55.1654 64.6659C62.1139 78.4316 67.6628 98.9963 67.6628 130.455C67.6628 132.24 69.1784 133.689 71.046 133.689C72.9131 133.689 74.4292 132.24 74.4292 130.455C74.4292 112.904 77.5755 91.8417 89.2743 74.5049C93.9631 78.8848 102.036 81.6599 110.98 81.9186C111.427 81.9315 111.867 81.9377 112.306 81.9377C121.394 81.9377 129.425 79.2147 134.479 74.3758C147.497 61.9295 149 37.5741 149 20.3342C149.007 18.5491 147.498 17.1067 145.624 17.1067Z" fill="#00B307"/>
</g>
</g>
</g>
<defs>
<filter id="filter0_d_2_5" x="185.191" y="32.9247" width="334.793" height="77.1619" filterUnits="userSpaceOnUse" color-interpolation-filters="sRGB">
<feFlood flood-opacity="0" result="BackgroundImageFix"/>
<feColorMatrix in="SourceAlpha" type="matrix" values="0 0 0 0 0 0 0 0 0 0 0 0 0 0 0 0 0 0 127 0" result="hardAlpha"/>
<feOffset dy="4"/>
<feGaussianBlur stdDeviation="2"/>
<feComposite in2="hardAlpha" operator="out"/>
<feColorMatrix type="matrix" values="0 0 0 0 0 0 0 0 0 0 0 0 0 0 0 0 0 0 0.25 0"/>
<feBlend mode="normal" in2="BackgroundImageFix" result="effect1_dropShadow_2_5"/>
<feBlend mode="normal" in="SourceGraphic" in2="effect1_dropShadow_2_5" result="shape"/>
</filter>
<filter id="filter1_d_2_5" x="-4" y="4.31124" width="157" height="137.378" filterUnits="userSpaceOnUse" color-interpolation-filters="sRGB">
<feFlood flood-opacity="0" result="BackgroundImageFix"/>
<feColorMatrix in="SourceAlpha" type="matrix" values="0 0 0 0 0 0 0 0 0 0 0 0 0 0 0 0 0 0 127 0" result="hardAlpha"/>
<feOffset dy="4"/>
<feGaussianBlur stdDeviation="2"/>
<feComposite in2="hardAlpha" operator="out"/>
<feColorMatrix type="matrix" values="0 0 0 0 0 0 0 0 0 0 0 0 0 0 0 0 0 0 0.25 0"/>
<feBlend mode="normal" in2="BackgroundImageFix" result="effect1_dropShadow_2_5"/>
<feBlend mode="normal" in="SourceGraphic" in2="effect1_dropShadow_2_5" result="shape"/>
</filter>
<clipPath id="clip0_2_5">
<rect width="149" height="138" fill="white"/>
</clipPath>
</defs>
</svg>
